<mxfile host="app.diagrams.net" modified="2023-11-30T22:45:36.970Z" agent="Mozilla/5.0 (Windows NT 10.0; Win64; x64) AppleWebKit/537.36 (KHTML, like Gecko) Chrome/119.0.0.0 Safari/537.36" version="22.1.5" etag="NNuujKgQfSQKKp_Osqmy" type="github">
  <diagram name="PÃ¡gina-1" id="4utN9KLH_R0Fn3hAMVe-">
    <mxGraphModel>
      <root>
        <mxCell id="0" />
        <mxCell id="1" parent="0" />
      </root>
    </mxGraphModel>
  </diagram>
</mxfile>
